<svg width="74" height="74" viewBox="0 0 74 74" fill="none" xmlns="http://www.w3.org/2000/svg">
<g clip-path="url(#clip0_13_9)">
<mask id="mask0_13_9" style="mask-type:luminance" maskUnits="userSpaceOnUse" x="0" y="13" width="73" height="48">
<path d="M0 13H72.535V61H0V13Z" fill="white"/>
</mask>
<g mask="url(#mask0_13_9)">
<path fill-rule="evenodd" clip-rule="evenodd" d="M0 61V13H1.52V61H0ZM23.67 61V13H25.19V61H23.67ZM47.345 61V13H48.864V61H47.345ZM71.016 61V13H72.535V61H71.016Z" fill="white"/>
<path d="M13.032 24.272C16.151 24.272 17.358 25.648 17.358 28.598V32.691H13.696V29.099C13.696 28.261 13.527 27.623 12.622 27.623C11.717 27.623 11.515 28.194 11.515 29.36V29.828C11.515 31.237 11.785 32.009 13.058 33.652L15.474 36.772C17.184 38.985 17.72 40.224 17.72 43.065V43.868C17.72 47.525 16.177 49.704 12.824 49.704H12.086C9.03502 49.704 7.45901 48.061 7.45901 44.974V39.983H11.214V44.343C11.214 45.517 11.617 46.079 12.455 46.079C13.36 46.079 13.696 45.511 13.696 43.933V43.364C13.696 41.552 13.527 40.977 12.153 39.171L9.73801 36.087C8.13001 34.008 7.65801 32.397 7.65801 29.917V29.112C7.65801 25.759 9.33601 24.249 12.32 24.249L13.032 24.272ZM38.162 49.456H34.373V24.498H38.163L38.162 49.456ZM60.375 24.272C63.494 24.272 64.703 25.648 64.703 28.598V32.691H61.046V29.099C61.046 28.261 60.879 27.623 59.974 27.623C59.069 27.623 58.867 28.194 58.867 29.36V29.828C58.867 31.237 59.137 32.009 60.41 33.652L62.823 36.772C64.533 38.985 65.072 40.224 65.072 43.065V43.868C65.072 47.525 63.529 49.704 60.176 49.704H59.438C56.386 49.704 54.808 48.061 54.808 44.974V39.983H58.565V44.343C58.565 45.517 58.967 46.079 59.807 46.079C60.712 46.079 61.046 45.511 61.046 43.933V43.364C61.046 41.552 60.879 40.977 59.505 39.171L57.089 36.087C55.479 34.008 55.01 32.397 55.01 29.917V29.112C55.01 25.759 56.688 24.249 59.672 24.249L60.375 24.272Z" fill="white"/>
</g>
</g>
<defs>
<clipPath id="clip0_13_9">
<rect width="73" height="48" fill="white" transform="translate(0 13)"/>
</clipPath>
</defs>
</svg>
