<svg width="256" height="256" viewBox="0 0 256 256" fill="none" xmlns="http://www.w3.org/2000/svg">
    <g clip-path="url(#clip0_48_4)">
        <mask id="path-1-outside-1_48_4" maskUnits="userSpaceOnUse" x="9" y="120" width="79" height="79" fill="black">
            <rect fill="white" x="9" y="120" width="79" height="79" />
            <path
                d="M87 159.5C87 180.763 69.763 198 48.5 198C27.237 198 10 180.763 10 159.5C10 138.237 27.237 121 48.5 121C69.763 121 87 138.237 87 159.5ZM17.7 159.5C17.7 176.51 31.4896 190.3 48.5 190.3C65.5104 190.3 79.3 176.51 79.3 159.5C79.3 142.49 65.5104 128.7 48.5 128.7C31.4896 128.7 17.7 142.49 17.7 159.5Z" />
        </mask>
        <path
            d="M87 159.5C87 180.763 69.763 198 48.5 198C27.237 198 10 180.763 10 159.5C10 138.237 27.237 121 48.5 121C69.763 121 87 138.237 87 159.5ZM17.7 159.5C17.7 176.51 31.4896 190.3 48.5 190.3C65.5104 190.3 79.3 176.51 79.3 159.5C79.3 142.49 65.5104 128.7 48.5 128.7C31.4896 128.7 17.7 142.49 17.7 159.5Z"
            fill="#538A94" />
        <path
            d="M87 159.5C87 180.763 69.763 198 48.5 198C27.237 198 10 180.763 10 159.5C10 138.237 27.237 121 48.5 121C69.763 121 87 138.237 87 159.5ZM17.7 159.5C17.7 176.51 31.4896 190.3 48.5 190.3C65.5104 190.3 79.3 176.51 79.3 159.5C79.3 142.49 65.5104 128.7 48.5 128.7C31.4896 128.7 17.7 142.49 17.7 159.5Z"
            stroke="black" stroke-width="0.5" mask="url(#path-1-outside-1_48_4)" />
        <mask id="path-2-outside-2_48_4" maskUnits="userSpaceOnUse" x="15" y="126" width="67" height="67" fill="black">
            <rect fill="white" x="15" y="126" width="67" height="67" />
            <path
                d="M81 159.5C81 177.449 66.4493 192 48.5 192C30.5507 192 16 177.449 16 159.5C16 141.551 30.5507 127 48.5 127C66.4493 127 81 141.551 81 159.5ZM22.5 159.5C22.5 173.859 34.1406 185.5 48.5 185.5C62.8594 185.5 74.5 173.859 74.5 159.5C74.5 145.141 62.8594 133.5 48.5 133.5C34.1406 133.5 22.5 145.141 22.5 159.5Z" />
        </mask>
        <path
            d="M81 159.5C81 177.449 66.4493 192 48.5 192C30.5507 192 16 177.449 16 159.5C16 141.551 30.5507 127 48.5 127C66.4493 127 81 141.551 81 159.5ZM22.5 159.5C22.5 173.859 34.1406 185.5 48.5 185.5C62.8594 185.5 74.5 173.859 74.5 159.5C74.5 145.141 62.8594 133.5 48.5 133.5C34.1406 133.5 22.5 145.141 22.5 159.5Z"
            fill="#EF4444" />
        <path
            d="M81 159.5C81 177.449 66.4493 192 48.5 192C30.5507 192 16 177.449 16 159.5C16 141.551 30.5507 127 48.5 127C66.4493 127 81 141.551 81 159.5ZM22.5 159.5C22.5 173.859 34.1406 185.5 48.5 185.5C62.8594 185.5 74.5 173.859 74.5 159.5C74.5 145.141 62.8594 133.5 48.5 133.5C34.1406 133.5 22.5 145.141 22.5 159.5Z"
            stroke="black" stroke-width="0.5" mask="url(#path-2-outside-2_48_4)" />
        <mask id="path-3-outside-3_48_4" maskUnits="userSpaceOnUse" x="21" y="132" width="55" height="55" fill="black">
            <rect fill="white" x="21" y="132" width="55" height="55" />
            <path
                d="M75 159.5C75 174.136 63.1355 186 48.5 186C33.8645 186 22 174.136 22 159.5C22 144.864 33.8645 133 48.5 133C63.1355 133 75 144.864 75 159.5ZM28.625 159.5C28.625 170.477 37.5233 179.375 48.5 179.375C59.4767 179.375 68.375 170.477 68.375 159.5C68.375 148.523 59.4767 139.625 48.5 139.625C37.5233 139.625 28.625 148.523 28.625 159.5Z" />
        </mask>
        <path
            d="M75 159.5C75 174.136 63.1355 186 48.5 186C33.8645 186 22 174.136 22 159.5C22 144.864 33.8645 133 48.5 133C63.1355 133 75 144.864 75 159.5ZM28.625 159.5C28.625 170.477 37.5233 179.375 48.5 179.375C59.4767 179.375 68.375 170.477 68.375 159.5C68.375 148.523 59.4767 139.625 48.5 139.625C37.5233 139.625 28.625 148.523 28.625 159.5Z"
            fill="#F2B244" />
        <path
            d="M75 159.5C75 174.136 63.1355 186 48.5 186C33.8645 186 22 174.136 22 159.5C22 144.864 33.8645 133 48.5 133C63.1355 133 75 144.864 75 159.5ZM28.625 159.5C28.625 170.477 37.5233 179.375 48.5 179.375C59.4767 179.375 68.375 170.477 68.375 159.5C68.375 148.523 59.4767 139.625 48.5 139.625C37.5233 139.625 28.625 148.523 28.625 159.5Z"
            stroke="black" stroke-width="0.5" mask="url(#path-3-outside-3_48_4)" />
        <mask id="path-4-outside-4_48_4" maskUnits="userSpaceOnUse" x="27" y="138" width="43" height="43" fill="black">
            <rect fill="white" x="27" y="138" width="43" height="43" />
            <path
                d="M69 159.5C69 170.822 59.8218 180 48.5 180C37.1782 180 28 170.822 28 159.5C28 148.178 37.1782 139 48.5 139C59.8218 139 69 148.178 69 159.5ZM33.125 159.5C33.125 167.991 40.0086 174.875 48.5 174.875C56.9914 174.875 63.875 167.991 63.875 159.5C63.875 151.009 56.9914 144.125 48.5 144.125C40.0086 144.125 33.125 151.009 33.125 159.5Z" />
        </mask>
        <path
            d="M69 159.5C69 170.822 59.8218 180 48.5 180C37.1782 180 28 170.822 28 159.5C28 148.178 37.1782 139 48.5 139C59.8218 139 69 148.178 69 159.5ZM33.125 159.5C33.125 167.991 40.0086 174.875 48.5 174.875C56.9914 174.875 63.875 167.991 63.875 159.5C63.875 151.009 56.9914 144.125 48.5 144.125C40.0086 144.125 33.125 151.009 33.125 159.5Z"
            fill="#34AC0C" />
        <path
            d="M69 159.5C69 170.822 59.8218 180 48.5 180C37.1782 180 28 170.822 28 159.5C28 148.178 37.1782 139 48.5 139C59.8218 139 69 148.178 69 159.5ZM33.125 159.5C33.125 167.991 40.0086 174.875 48.5 174.875C56.9914 174.875 63.875 167.991 63.875 159.5C63.875 151.009 56.9914 144.125 48.5 144.125C40.0086 144.125 33.125 151.009 33.125 159.5Z"
            stroke="black" stroke-width="0.5" mask="url(#path-4-outside-4_48_4)" />
        <mask id="path-5-outside-5_48_4" maskUnits="userSpaceOnUse" x="169" y="120" width="79" height="79" fill="black">
            <rect fill="white" x="169" y="120" width="79" height="79" />
            <path
                d="M247 159.5C247 180.763 229.763 198 208.5 198C187.237 198 170 180.763 170 159.5C170 138.237 187.237 121 208.5 121C229.763 121 247 138.237 247 159.5ZM177.7 159.5C177.7 176.51 191.49 190.3 208.5 190.3C225.51 190.3 239.3 176.51 239.3 159.5C239.3 142.49 225.51 128.7 208.5 128.7C191.49 128.7 177.7 142.49 177.7 159.5Z" />
        </mask>
        <path
            d="M247 159.5C247 180.763 229.763 198 208.5 198C187.237 198 170 180.763 170 159.5C170 138.237 187.237 121 208.5 121C229.763 121 247 138.237 247 159.5ZM177.7 159.5C177.7 176.51 191.49 190.3 208.5 190.3C225.51 190.3 239.3 176.51 239.3 159.5C239.3 142.49 225.51 128.7 208.5 128.7C191.49 128.7 177.7 142.49 177.7 159.5Z"
            fill="#538A94" />
        <path
            d="M247 159.5C247 180.763 229.763 198 208.5 198C187.237 198 170 180.763 170 159.5C170 138.237 187.237 121 208.5 121C229.763 121 247 138.237 247 159.5ZM177.7 159.5C177.7 176.51 191.49 190.3 208.5 190.3C225.51 190.3 239.3 176.51 239.3 159.5C239.3 142.49 225.51 128.7 208.5 128.7C191.49 128.7 177.7 142.49 177.7 159.5Z"
            stroke="black" stroke-width="0.5" mask="url(#path-5-outside-5_48_4)" />
        <mask id="path-6-outside-6_48_4" maskUnits="userSpaceOnUse" x="175" y="126" width="67" height="67" fill="black">
            <rect fill="white" x="175" y="126" width="67" height="67" />
            <path
                d="M241 159.5C241 177.449 226.449 192 208.5 192C190.551 192 176 177.449 176 159.5C176 141.551 190.551 127 208.5 127C226.449 127 241 141.551 241 159.5ZM182.5 159.5C182.5 173.859 194.141 185.5 208.5 185.5C222.859 185.5 234.5 173.859 234.5 159.5C234.5 145.141 222.859 133.5 208.5 133.5C194.141 133.5 182.5 145.141 182.5 159.5Z" />
        </mask>
        <path
            d="M241 159.5C241 177.449 226.449 192 208.5 192C190.551 192 176 177.449 176 159.5C176 141.551 190.551 127 208.5 127C226.449 127 241 141.551 241 159.5ZM182.5 159.5C182.5 173.859 194.141 185.5 208.5 185.5C222.859 185.5 234.5 173.859 234.5 159.5C234.5 145.141 222.859 133.5 208.5 133.5C194.141 133.5 182.5 145.141 182.5 159.5Z"
            fill="#EF4444" />
        <path
            d="M241 159.5C241 177.449 226.449 192 208.5 192C190.551 192 176 177.449 176 159.5C176 141.551 190.551 127 208.5 127C226.449 127 241 141.551 241 159.5ZM182.5 159.5C182.5 173.859 194.141 185.5 208.5 185.5C222.859 185.5 234.5 173.859 234.5 159.5C234.5 145.141 222.859 133.5 208.5 133.5C194.141 133.5 182.5 145.141 182.5 159.5Z"
            stroke="black" stroke-width="0.5" mask="url(#path-6-outside-6_48_4)" />
        <mask id="path-7-outside-7_48_4" maskUnits="userSpaceOnUse" x="181" y="132" width="55" height="55" fill="black">
            <rect fill="white" x="181" y="132" width="55" height="55" />
            <path
                d="M235 159.5C235 174.136 223.136 186 208.5 186C193.864 186 182 174.136 182 159.5C182 144.864 193.864 133 208.5 133C223.136 133 235 144.864 235 159.5ZM188.625 159.5C188.625 170.477 197.523 179.375 208.5 179.375C219.477 179.375 228.375 170.477 228.375 159.5C228.375 148.523 219.477 139.625 208.5 139.625C197.523 139.625 188.625 148.523 188.625 159.5Z" />
        </mask>
        <path
            d="M235 159.5C235 174.136 223.136 186 208.5 186C193.864 186 182 174.136 182 159.5C182 144.864 193.864 133 208.5 133C223.136 133 235 144.864 235 159.5ZM188.625 159.5C188.625 170.477 197.523 179.375 208.5 179.375C219.477 179.375 228.375 170.477 228.375 159.5C228.375 148.523 219.477 139.625 208.5 139.625C197.523 139.625 188.625 148.523 188.625 159.5Z"
            fill="#F2B244" />
        <path
            d="M235 159.5C235 174.136 223.136 186 208.5 186C193.864 186 182 174.136 182 159.5C182 144.864 193.864 133 208.5 133C223.136 133 235 144.864 235 159.5ZM188.625 159.5C188.625 170.477 197.523 179.375 208.5 179.375C219.477 179.375 228.375 170.477 228.375 159.5C228.375 148.523 219.477 139.625 208.5 139.625C197.523 139.625 188.625 148.523 188.625 159.5Z"
            stroke="black" stroke-width="0.5" mask="url(#path-7-outside-7_48_4)" />
        <mask id="path-8-outside-8_48_4" maskUnits="userSpaceOnUse" x="187" y="138" width="43" height="43" fill="black">
            <rect fill="white" x="187" y="138" width="43" height="43" />
            <path
                d="M229 159.5C229 170.822 219.822 180 208.5 180C197.178 180 188 170.822 188 159.5C188 148.178 197.178 139 208.5 139C219.822 139 229 148.178 229 159.5ZM193.125 159.5C193.125 167.991 200.009 174.875 208.5 174.875C216.991 174.875 223.875 167.991 223.875 159.5C223.875 151.009 216.991 144.125 208.5 144.125C200.009 144.125 193.125 151.009 193.125 159.5Z" />
        </mask>
        <path
            d="M229 159.5C229 170.822 219.822 180 208.5 180C197.178 180 188 170.822 188 159.5C188 148.178 197.178 139 208.5 139C219.822 139 229 148.178 229 159.5ZM193.125 159.5C193.125 167.991 200.009 174.875 208.5 174.875C216.991 174.875 223.875 167.991 223.875 159.5C223.875 151.009 216.991 144.125 208.5 144.125C200.009 144.125 193.125 151.009 193.125 159.5Z"
            fill="#34AC0C" />
        <path
            d="M229 159.5C229 170.822 219.822 180 208.5 180C197.178 180 188 170.822 188 159.5C188 148.178 197.178 139 208.5 139C219.822 139 229 148.178 229 159.5ZM193.125 159.5C193.125 167.991 200.009 174.875 208.5 174.875C216.991 174.875 223.875 167.991 223.875 159.5C223.875 151.009 216.991 144.125 208.5 144.125C200.009 144.125 193.125 151.009 193.125 159.5Z"
            stroke="black" stroke-width="0.5" mask="url(#path-8-outside-8_48_4)" />
        <path d="M208 80C208 75.7565 206.314 71.6869 203.314 68.6863C200.313 65.6857 196.243 64 192 64H152L208 160"
            stroke="#538A94" stroke-width="16" stroke-linecap="round" stroke-linejoin="round" />
        <path d="M48 64H76L132 160" stroke="#538A94" stroke-width="16" stroke-linecap="round" stroke-linejoin="round" />
        <path d="M170.67 96H94.67L48 160" stroke="#538A94" stroke-width="16" stroke-linecap="round"
            stroke-linejoin="round" />
    </g>
    <defs>
        <clipPath id="clip0_48_4">
            <rect width="256" height="256" fill="white" />
        </clipPath>
    </defs>
</svg>